<?xml version="1.0" encoding="UTF-8"?>
<svg id="Layer_2" data-name="Layer 2" xmlns="http://www.w3.org/2000/svg" viewBox="0 0 239.9 147.62">
  <defs>
    <style>
      .cls-1, .cls-2 {
        font-size: 50px;
      }

      .cls-1, .cls-2, .cls-3 {
        isolation: isolate;
      }

      .cls-1, .cls-2, .cls-4 {
        fill: #878787;
        font-family: Serifa-Med, Serifa;
      }

      .cls-5 {
        fill: #00c605;
      }

      .cls-2 {
        letter-spacing: .07em;
      }

      .cls-6 {
        letter-spacing: 0em;
      }

      .cls-7 {
        letter-spacing: 0em;
      }

      .cls-8 {
        fill: #ee7d33;
      }

      .cls-4 {
        font-size: 22.17px;
      }

      .cls-9 {
        letter-spacing: -.02em;
      }

      .cls-10 {
        letter-spacing: -.02em;
      }

      .cls-11 {
        letter-spacing: 0em;
      }

      .cls-12 {
        letter-spacing: 0em;
      }
    </style>
  </defs>
  <g id="Layer_1-2" data-name="Layer 1">
    <g class="cls-3">
      <text class="cls-1" transform="translate(0 113.88)"><tspan x="0" y="0">C</tspan></text>
      <text class="cls-1" transform="translate(32.85 113.88)"><tspan x="0" y="0">O</tspan></text>
      <text class="cls-1" transform="translate(68.5 113.88)"><tspan x="0" y="0">M</tspan></text>
      <text class="cls-1" transform="translate(116.45 113.88)"><tspan x="0" y="0">P</tspan></text>
      <text class="cls-1" transform="translate(142.55 113.88)"><tspan x="0" y="0">A</tspan></text>
      <text class="cls-2" transform="translate(180.65 113.88)"><tspan x="0" y="0">S</tspan></text>
      <text class="cls-2" transform="translate(209.65 113.88)"><tspan x="0" y="0">S</tspan></text>
    </g>
    <g>
      <path class="cls-5" d="M153.41,29.79c-.72-1.09-2.81-1.4-4.35-1.8-1.94-.28-3.47-1.77-3.81-3.7-.41-1.16-.9-2.28-1.46-3.38-.22-.61-.22-1.27,0-1.88.76-1.83,1.73-3.58,2.5-5.41.14-.53.03-1.1-.29-1.54-1.33-1.54-2.82-2.81-4.16-4.26-.45-.62-1.32-.76-1.94-.31,0,0-.01,0-.02.01-1.54.85-3.32,1.54-4.93,2.41-.74.44-1.65.44-2.39,0-1.54-.77-3.19-1.28-4.73-2.04-.63-.31-1.14-.82-1.45-1.45-.74-1.71-1.36-3.5-1.93-5.29-.15-.76-.87-1.26-1.63-1.14h-5.81c-.65.09-1.22.47-1.54,1.03-.76,1.77-1.31,3.64-2.02,5.43-.21.52-.58.95-1.06,1.23-2.05.94-4.16,2.48-6.17,2.44s-4.1-1.68-6.17-2.62l-.12-.09c-.51-.44-1.28-.38-1.72.13-.04.04-.07.09-.1.14-1.39,1.43-2.81,2.71-4.19,4.26-.37.5-.48,1.13-.31,1.73.76,1.83,1.73,3.58,2.51,5.41.19.56.19,1.18,0,1.74-.66,1.7-1.37,3.45-2.16,5-.28.59-.74,1.07-1.33,1.37-1.73.72-3.52,1.36-5.3,1.93-.83.13-1.4.91-1.28,1.74,0,1.87.08,3.75,0,5.63-.08.8.48,1.53,1.28,1.67,1.74.56,3.48,1.16,5.15,1.87.66.29,1.2.8,1.54,1.43.78,1.59,1.46,3.22,2.05,4.89.23.66.23,1.38,0,2.04-.77,1.82-1.74,3.5-2.47,5.29-.17.6-.06,1.24.31,1.74,1.28,1.43,2.76,2.71,4.06,4.13.51.64,1.43.78,2.1.31,1.67-.88,3.39-1.65,5.09-2.45l.97-.42c1.28.74,2.63,1.33,4.04,1.77,2.19.41,3.89,2.17,4.21,4.38.39,1.42.72,3.28,1.76,3.99s2.9.25,4.41.26c3.45,0,3.61,0,4.63-3.3.59-2.7,2.58-4.87,5.21-5.71,2.26-1.12,4.94-1.02,7.11.26,3.42,1.93,3.53,1.74,6.31-1.02,3.08-2.99,3.16-3.08,1.14-6.8-1.14-2.05-1.22-4.52-.2-6.63.85-2.81,3.19-4.91,6.08-5.46,3.08-.83,3.08-1,3.08-4.12-.14-1.65.32-3.69-.46-4.84ZM119.83,54.47c-11.83-.09-21.42-9.62-21.59-21.45,0-11.92,9.67-21.58,21.6-21.58,11.92,0,21.58,9.66,21.58,21.58-.14,11.84-9.74,21.39-21.59,21.46v-.02Z"/>
      <path class="cls-8" d="M132.52,21.67c-5.6,1.99-11.19,3.96-16.79,5.97l2.68,2.48c.44-.14.9-.21,1.36-.2,2.19-.07,4.03,1.64,4.12,3.82,0,.42-.07.83-.22,1.22l2.7,2.48c2.13-5.06,4.25-10.12,6.35-15.19.08-.2.14-.4.26-.71l-.46.12Z"/>
      <path class="cls-8" d="M120.92,37.4c-.38.1-.78.15-1.17.15-2.19.08-4.03-1.61-4.15-3.79,0-.38.06-.75.17-1.11l-2.7-2.48c-1.91,4.55-3.82,9.11-5.72,13.66l-.88,2.13.48-.14,16.68-5.94-2.71-2.48Z"/>
    </g>
    <g>
      <path class="cls-8" d="M71.39,128.41c-4.86,1.73-9.73,3.44-14.59,5.19l2.33,2.16c.38-.12.78-.18,1.18-.17,1.9-.06,3.5,1.42,3.58,3.32,0,.36-.06.72-.19,1.06l2.35,2.16c1.85-4.4,3.69-8.8,5.52-13.2.07-.17.12-.35.23-.62l-.4.11Z"/>
      <text class="cls-4" transform="translate(76.33 142.07)"><tspan class="cls-10" x="0" y="0">D</tspan><tspan class="cls-11" x="16.36" y="0">E</tspan><tspan class="cls-12" x="31.49" y="0">T</tspan><tspan class="cls-9" x="46.83" y="0">R</tspan><tspan class="cls-7" x="61.97" y="0">O</tspan><tspan class="cls-6" x="78.96" y="0">I</tspan><tspan class="cls-7" x="87.54" y="0">T</tspan></text>
    </g>
  </g>
</svg>